<?xml version="1.0" encoding="UTF-8" standalone="no"?>
<!DOCTYPE svg PUBLIC "-//W3C//DTD SVG 1.1//EN" "http://www.w3.org/Graphics/SVG/1.1/DTD/svg11.dtd">
<svg width="100%" height="100%" viewBox="0 0 100 100" version="1.1" xmlns="http://www.w3.org/2000/svg" xmlns:xlink="http://www.w3.org/1999/xlink" xml:space="preserve" xmlns:serif="http://www.serif.com/" style="fill-rule:evenodd;clip-rule:evenodd;stroke-linejoin:round;stroke-miterlimit:2;">
    <g transform="matrix(4.65526,0,0,4.65526,-268.453,-91.2641)">
        <path d="M71.646,22.619L78.127,29.219C79.245,30.333 79.351,31.69 78.536,33.267L73.369,38.535C72.817,38.848 72.336,38.87 72.083,37.984C72.085,37.689 72.04,37.206 71.961,36.585C71.794,35.395 70.714,33.344 68.642,30.357L60.331,38.382C58.535,38.706 57.516,38.017 57.789,35.646L66.059,27.11C65.798,26.579 65.762,25.967 66.182,25.191L69.102,22.26C70.064,21.738 70.901,21.916 71.646,22.619Z"/>
    </g>
</svg>
