<?xml version="1.0" encoding="UTF-8" standalone="no"?>
<!DOCTYPE svg PUBLIC "-//W3C//DTD SVG 1.1//EN" "http://www.w3.org/Graphics/SVG/1.1/DTD/svg11.dtd">
<svg width="100%" height="100%" viewBox="0 0 100 100" version="1.1" xmlns="http://www.w3.org/2000/svg" xmlns:xlink="http://www.w3.org/1999/xlink" xml:space="preserve" xmlns:serif="http://www.serif.com/" style="fill-rule:evenodd;clip-rule:evenodd;stroke-linejoin:round;stroke-miterlimit:2;">
    <g transform="matrix(2.16835,-0.16857,0.217596,1.53816,-88.4051,-21.284)">
        <ellipse cx="62.473" cy="26.245" rx="9.395" ry="4.716"/>
    </g>
    <g transform="matrix(1.96182,0,0,1.55248,-56.4324,-37.8206)">
        <ellipse cx="45.623" cy="40.927" rx="9.281" ry="3.804"/>
    </g>
    <g transform="matrix(1.58952,0.0631217,-0.115403,1.59699,-25.5797,-23.054)">
        <ellipse cx="59.032" cy="46.148" rx="9.032" ry="3.852"/>
    </g>
    <g transform="matrix(1.93177,0.0767128,-0.11435,1.58243,-83.5635,-29.9764)">
        <ellipse cx="59.032" cy="46.148" rx="9.032" ry="3.852"/>
    </g>
    <g transform="matrix(2.82112,0.112029,-0.182051,2.5193,-109.302,-49.4379)">
        <ellipse cx="59.032" cy="46.148" rx="9.032" ry="3.852"/>
    </g>
    <g transform="matrix(2.10943,-0.257505,0.3156,1.42074,-65.9222,-17.1681)">
        <ellipse cx="59.032" cy="46.148" rx="9.032" ry="3.852"/>
    </g>
    <g transform="matrix(1.75965,0.0205682,-0.0227072,1.06756,-43.1364,-5.59429)">
        <path d="M54.904,12.248L52.167,12.248L50,96.763L56.723,96.763L54.904,12.248Z"/>
    </g>
    <g transform="matrix(1.42088,0.769767,-1.98878,2.01735,83.9723,-121.816)">
        <rect x="60.989" y="53.99" width="3.043" height="7.447"/>
    </g>
    <g transform="matrix(2.07094,-0.900131,1.59008,2.01038,-164.917,-43.9512)">
        <rect x="43.418" y="66.173" width="2.205" height="8.834"/>
    </g>
    <g transform="matrix(1.71468,-0.745282,1.59008,2.01038,-146.216,-75.2467)">
        <rect x="43.418" y="66.173" width="2.205" height="8.834"/>
    </g>
</svg>
