<?xml version="1.0" encoding="UTF-8" standalone="no"?>
<!DOCTYPE svg PUBLIC "-//W3C//DTD SVG 1.1//EN" "http://www.w3.org/Graphics/SVG/1.1/DTD/svg11.dtd">
<svg width="100%" height="100%" viewBox="0 0 100 100" version="1.1" xmlns="http://www.w3.org/2000/svg" xmlns:xlink="http://www.w3.org/1999/xlink" xml:space="preserve" xmlns:serif="http://www.serif.com/" style="fill-rule:evenodd;clip-rule:evenodd;stroke-linejoin:round;stroke-miterlimit:2;">
    <g transform="matrix(1,0,0,1,0,17.5706)">
        <path d="M50,32.429C76.303,32.429 97.657,43.125 97.657,56.298C97.657,69.472 76.303,80.167 50,80.167C23.697,80.167 2.343,69.472 2.343,56.298C2.343,43.125 23.697,32.429 50,32.429ZM16.423,60.07C28.735,48.869 39.627,49.021 49.157,60.07C60.195,70.748 71.684,70.359 83.577,60.07L83.577,64.563C71.895,74.463 60.411,74.989 49.157,64.563C38.82,52.517 27.91,53.075 16.504,64.563L16.423,60.07ZM16.423,46.993C28.735,35.791 39.627,35.943 49.157,46.993C60.195,57.671 71.684,57.282 83.577,46.993L83.577,51.486C71.895,61.385 60.411,61.911 49.157,51.486C38.82,39.44 27.91,39.997 16.504,51.486L16.423,46.993Z"/>
    </g>
    <g transform="matrix(1,0,0,1,0.90592,15.7253)">
        <path d="M50,36.215L54.782,36.115C54.295,29.138 54.8,21.964 56.988,14.452L53.478,13.249C51.946,20.518 49.927,28.144 50,36.215Z"/>
    </g>
    <g transform="matrix(2.75234,0.675659,-0.675659,2.75234,-145.89,-74.8858)">
        <path d="M80.983,7.924C76.77,8.479 75.983,12.617 77.467,19.13L78.65,19.492C82.961,14.535 83.419,10.778 80.983,7.924Z"/>
    </g>
    <g transform="matrix(1.14625,2.02174,-2.25007,1.27571,8.64745,-142.754)">
        <path d="M80.983,7.924C76.77,8.479 75.983,12.617 77.467,19.13L78.65,19.492C82.961,14.535 83.419,10.778 80.983,7.924Z"/>
    </g>
    <g transform="matrix(1.41804,-3.04323,2.84311,1.32479,-110.824,252.223)">
        <path d="M80.983,7.924C76.77,8.479 75.983,12.617 77.467,19.13L78.65,19.492C82.961,14.535 83.419,10.778 80.983,7.924Z"/>
    </g>
</svg>
