<?xml version="1.0" encoding="UTF-8" standalone="no"?>
<!DOCTYPE svg PUBLIC "-//W3C//DTD SVG 1.1//EN" "http://www.w3.org/Graphics/SVG/1.1/DTD/svg11.dtd">
<svg width="100%" height="100%" viewBox="0 0 100 100" version="1.1" xmlns="http://www.w3.org/2000/svg" xmlns:xlink="http://www.w3.org/1999/xlink" xml:space="preserve" xmlns:serif="http://www.serif.com/" style="fill-rule:evenodd;clip-rule:evenodd;stroke-linejoin:round;stroke-miterlimit:2;">
    <g transform="matrix(1.17078,0,0,1.06041,-10.4936,-15.9264)">
        <path d="M54.25,24.134C54.25,21.556 52.158,19.464 49.58,19.464L25.825,19.464C23.247,19.464 21.586,21.516 21.155,24.134L19.742,33.473C19.742,36.05 21.834,38.143 24.411,38.143L48.167,38.143C50.745,38.143 52.392,36.001 52.837,33.473C53.394,30.31 53.784,27.414 54.25,24.134Z"/>
        <g transform="matrix(1,0,0,1,37.5353,0)">
            <path d="M54.25,24.134C54.25,21.556 52.158,19.464 49.58,19.464L25.825,19.464C23.247,19.464 21.586,21.516 21.155,24.134L19.742,33.473C19.742,36.05 21.834,38.143 24.411,38.143L48.167,38.143C50.745,38.143 52.392,36.001 52.837,33.473C53.394,30.31 53.784,27.414 54.25,24.134Z"/>
        </g>
        <g transform="matrix(1,0,0,1,-2.92551,22.254)">
            <path d="M54.25,24.134C54.25,21.556 52.158,19.464 49.58,19.464L25.825,19.464C23.247,19.464 21.586,21.516 21.155,24.134L19.742,33.473C19.742,36.05 21.834,38.143 24.411,38.143L48.167,38.143C50.745,38.143 52.392,36.001 52.837,33.473C53.394,30.31 53.784,27.414 54.25,24.134Z"/>
        </g>
        <g transform="matrix(1,0,0,1,34.6097,22.254)">
            <path d="M54.25,24.134C54.25,21.556 52.158,19.464 49.58,19.464L25.825,19.464C23.247,19.464 21.586,21.516 21.155,24.134L19.742,33.473C19.742,36.05 21.834,38.143 24.411,38.143L48.167,38.143C50.745,38.143 52.392,36.001 52.837,33.473C53.394,30.31 53.784,27.414 54.25,24.134Z"/>
        </g>
    </g>
    <g transform="matrix(1.17078,0,0,1.06041,-16.6556,31.2408)">
        <path d="M54.25,24.134C54.25,21.556 52.158,19.464 49.58,19.464L25.825,19.464C23.247,19.464 21.586,21.516 21.155,24.134L19.742,33.473C19.742,36.05 21.834,38.143 24.411,38.143L48.167,38.143C50.745,38.143 52.392,36.001 52.837,33.473C53.394,30.31 53.784,27.414 54.25,24.134Z"/>
        <g transform="matrix(1,0,0,1,37.5353,0)">
            <path d="M54.25,24.134C54.25,21.556 52.158,19.464 49.58,19.464L25.825,19.464C23.247,19.464 21.586,21.516 21.155,24.134L19.742,33.473C19.742,36.05 21.834,38.143 24.411,38.143L48.167,38.143C50.745,38.143 52.392,36.001 52.837,33.473C53.394,30.31 53.784,27.414 54.25,24.134Z"/>
        </g>
        <g transform="matrix(1,0,0,1,-2.92551,22.254)">
            <path d="M54.25,24.134C54.25,21.556 52.158,19.464 49.58,19.464L25.825,19.464C23.247,19.464 21.586,21.516 21.155,24.134L19.742,33.473C19.742,36.05 21.834,38.143 24.411,38.143L48.167,38.143C50.745,38.143 52.392,36.001 52.837,33.473C53.394,30.31 53.784,27.414 54.25,24.134Z"/>
        </g>
        <g transform="matrix(1,0,0,1,34.6097,22.254)">
            <path d="M54.25,24.134C54.25,21.556 52.158,19.464 49.58,19.464L25.825,19.464C23.247,19.464 21.586,21.516 21.155,24.134L19.742,33.473C19.742,36.05 21.834,38.143 24.411,38.143L48.167,38.143C50.745,38.143 52.392,36.001 52.837,33.473C53.394,30.31 53.784,27.414 54.25,24.134Z"/>
        </g>
    </g>
</svg>
