<?xml version="1.0" encoding="UTF-8" standalone="no"?>
<!DOCTYPE svg PUBLIC "-//W3C//DTD SVG 1.1//EN" "http://www.w3.org/Graphics/SVG/1.1/DTD/svg11.dtd">
<svg width="100%" height="100%" viewBox="0 0 100 100" version="1.1" xmlns="http://www.w3.org/2000/svg" xmlns:xlink="http://www.w3.org/1999/xlink" xml:space="preserve" xmlns:serif="http://www.serif.com/" style="fill-rule:evenodd;clip-rule:evenodd;stroke-linejoin:round;stroke-miterlimit:2;">
    <g transform="matrix(1.16731,0,0,1.03761,-8.16424,7.16834)">
        <rect x="8.736" y="72.696" width="82.183" height="15.707"/>
    </g>
    <g transform="matrix(1.65672,0,0,2.67827,-12.0002,-111.844)">
        <path d="M20.391,72.696C21.65,71.206 23.238,70.009 25.566,69.469C27.198,68.964 28.477,68.106 29.516,67.007C31.046,65.568 32.021,63.646 32.186,61.02C27.93,59.938 24.565,60.203 22.861,62.979C21.778,64.561 20.999,68.087 20.391,72.696Z"/>
    </g>
    <g transform="matrix(-1.65672,0,0,2.67827,55.5629,-111.844)">
        <path d="M20.391,72.696C21.65,71.206 23.238,70.009 25.566,69.469C27.198,68.964 28.477,68.106 29.516,67.007C31.046,65.568 32.021,63.646 32.186,61.02C27.93,59.938 24.565,60.203 22.861,62.979C21.778,64.561 20.999,68.087 20.391,72.696Z"/>
    </g>
    <g transform="matrix(1.65672,0,0,2.67827,44.2258,-111.844)">
        <path d="M20.391,72.696C21.65,71.206 23.238,70.009 25.566,69.469C27.198,68.964 28.477,68.106 29.516,67.007C31.046,65.568 32.021,63.646 32.186,61.02C27.93,59.938 24.565,60.203 22.861,62.979C21.778,64.561 20.999,68.087 20.391,72.696Z"/>
    </g>
    <g transform="matrix(-1.65672,0,0,2.67827,111.789,-111.844)">
        <path d="M20.391,72.696C21.65,71.206 23.238,70.009 25.566,69.469C27.198,68.964 28.477,68.106 29.516,67.007C31.046,65.568 32.021,63.646 32.186,61.02C27.93,59.938 24.565,60.203 22.861,62.979C21.778,64.561 20.999,68.087 20.391,72.696Z"/>
    </g>
    <g transform="matrix(1.03761,0,0,1.03761,-2.18606,6.04486)">
        <path d="M54.878,70.941L43.193,70.941L41.942,73.779L56.102,73.779L54.878,70.941Z"/>
    </g>
    <g transform="matrix(1.03761,0,0,1.7566,-2.87402,-44.0789)">
        <rect x="46.926" y="47.174" width="5.519" height="24.103"/>
    </g>
    <g transform="matrix(1.48295,0,0,2.06932,-24.0175,-62.5418)">
        <path d="M56.102,34.014L41.942,34.014L46.263,50L51.781,50L56.102,34.014Z"/>
    </g>
    <g transform="matrix(1.12967,0,0,0.821624,-6.83614,-12.3087)">
        <path d="M66.531,19.919C66.531,18.509 65.699,17.365 64.673,17.365L33.613,17.365C32.588,17.365 31.756,18.509 31.756,19.919L31.756,25.026C31.756,26.436 32.588,27.58 33.613,27.58L64.673,27.58C65.699,27.58 66.531,26.436 66.531,25.026L66.531,19.919Z"/>
    </g>
    <g transform="matrix(0.952241,0,0,1.46297,15.0768,-13.2632)">
        <path d="M18.049,20.443C18.049,19.618 17.02,18.948 15.752,18.948L11.518,18.948C10.249,18.948 9.22,19.618 9.22,20.443C9.22,21.269 10.249,21.939 11.518,21.939L15.752,21.939C17.02,21.939 18.049,21.269 18.049,20.443Z"/>
    </g>
    <g transform="matrix(0.87555,-0.3744,0.575208,1.34515,-14.4095,0.914938)">
        <path d="M18.049,20.443C18.049,19.618 17.02,18.948 15.752,18.948L11.518,18.948C10.249,18.948 9.22,19.618 9.22,20.443C9.22,21.269 10.249,21.939 11.518,21.939L15.752,21.939C17.02,21.939 18.049,21.269 18.049,20.443Z"/>
    </g>
    <g transform="matrix(0.859405,-0.923724,1.0711,0.996515,-18.5123,27.6819)">
        <path d="M18.049,20.443C18.049,19.618 17.272,18.948 16.315,18.948L10.954,18.948C9.997,18.948 9.22,19.618 9.22,20.443C9.22,21.269 9.997,21.939 10.954,21.939L16.315,21.939C17.272,21.939 18.049,21.269 18.049,20.443Z"/>
    </g>
    <g transform="matrix(0.823268,-0.501799,0.761419,1.24921,1.83887,6.12409)">
        <path d="M18.049,20.443C18.049,19.618 17.032,18.948 15.78,18.948L11.489,18.948C10.237,18.948 9.22,19.618 9.22,20.443C9.22,21.269 10.237,21.939 11.489,21.939L15.78,21.939C17.032,21.939 18.049,21.269 18.049,20.443Z"/>
    </g>
    <g transform="matrix(0.698594,-0.664484,1.00828,1.06003,4.34286,19.0874)">
        <path d="M18.049,20.443C18.049,19.618 17.032,18.948 15.78,18.948L11.489,18.948C10.237,18.948 9.22,19.618 9.22,20.443C9.22,21.269 10.237,21.939 11.489,21.939L15.78,21.939C17.032,21.939 18.049,21.269 18.049,20.443Z"/>
    </g>
    <g transform="matrix(0.563148,-1.03979,1.28642,0.69672,-6.81518,43.6592)">
        <path d="M18.049,20.443C18.049,19.618 17.22,18.948 16.199,18.948L11.07,18.948C10.049,18.948 9.22,19.618 9.22,20.443C9.22,21.269 10.049,21.939 11.07,21.939L16.199,21.939C17.22,21.939 18.049,21.269 18.049,20.443Z"/>
    </g>
    <g transform="matrix(-0.952241,0,0,1.46297,82.2822,-13.2632)">
        <path d="M18.049,20.443C18.049,19.618 17.02,18.948 15.752,18.948L11.518,18.948C10.249,18.948 9.22,19.618 9.22,20.443C9.22,21.269 10.249,21.939 11.518,21.939L15.752,21.939C17.02,21.939 18.049,21.269 18.049,20.443Z"/>
    </g>
    <g transform="matrix(-0.87555,-0.3744,-0.575208,1.34515,111.769,0.914938)">
        <path d="M18.049,20.443C18.049,19.618 17.02,18.948 15.752,18.948L11.518,18.948C10.249,18.948 9.22,19.618 9.22,20.443C9.22,21.269 10.249,21.939 11.518,21.939L15.752,21.939C17.02,21.939 18.049,21.269 18.049,20.443Z"/>
    </g>
    <g transform="matrix(-0.859405,-0.923724,-1.0711,0.996515,115.871,27.6819)">
        <path d="M18.049,20.443C18.049,19.618 17.272,18.948 16.315,18.948L10.954,18.948C9.997,18.948 9.22,19.618 9.22,20.443C9.22,21.269 9.997,21.939 10.954,21.939L16.315,21.939C17.272,21.939 18.049,21.269 18.049,20.443Z"/>
    </g>
    <g transform="matrix(-0.823268,-0.501799,-0.761419,1.24921,95.5201,6.12409)">
        <path d="M18.049,20.443C18.049,19.618 17.032,18.948 15.78,18.948L11.489,18.948C10.237,18.948 9.22,19.618 9.22,20.443C9.22,21.269 10.237,21.939 11.489,21.939L15.78,21.939C17.032,21.939 18.049,21.269 18.049,20.443Z"/>
    </g>
    <g transform="matrix(-0.698594,-0.664484,-1.00828,1.06003,93.0162,19.0874)">
        <path d="M18.049,20.443C18.049,19.618 17.032,18.948 15.78,18.948L11.489,18.948C10.237,18.948 9.22,19.618 9.22,20.443C9.22,21.269 10.237,21.939 11.489,21.939L15.78,21.939C17.032,21.939 18.049,21.269 18.049,20.443Z"/>
    </g>
    <g transform="matrix(-0.563148,-1.03979,-1.28642,0.69672,104.174,43.6592)">
        <path d="M18.049,20.443C18.049,19.618 17.22,18.948 16.199,18.948L11.07,18.948C10.049,18.948 9.22,19.618 9.22,20.443C9.22,21.269 10.049,21.939 11.07,21.939L16.199,21.939C17.22,21.939 18.049,21.269 18.049,20.443Z"/>
    </g>
</svg>
