<?xml version="1.0" encoding="UTF-8" standalone="no"?>
<!DOCTYPE svg PUBLIC "-//W3C//DTD SVG 1.1//EN" "http://www.w3.org/Graphics/SVG/1.1/DTD/svg11.dtd">
<svg width="100%" height="100%" viewBox="0 0 100 100" version="1.1" xmlns="http://www.w3.org/2000/svg" xmlns:xlink="http://www.w3.org/1999/xlink" xml:space="preserve" xmlns:serif="http://www.serif.com/" style="fill-rule:evenodd;clip-rule:evenodd;stroke-linejoin:round;stroke-miterlimit:2;">
    <g transform="matrix(1.16731,0,0,1.03761,-8.16424,-1.94591)">
        <rect x="8.736" y="72.696" width="82.183" height="15.707"/>
    </g>
    <g transform="matrix(1.03761,0,0,1.03761,-2.18606,-1.94591)">
        <path d="M20.391,72.696C21.65,71.206 23.238,70.009 25.566,69.469C27.198,68.964 28.477,68.106 29.516,67.007C31.046,65.568 32.021,63.646 32.186,61.02C27.93,59.938 24.565,60.203 22.861,62.979C21.778,64.561 20.999,68.087 20.391,72.696Z"/>
    </g>
    <g transform="matrix(-1.03761,0,0,1.03761,40.1291,-1.94591)">
        <path d="M20.391,72.696C21.65,71.206 23.238,70.009 25.566,69.469C27.198,68.964 28.477,68.106 29.516,67.007C31.046,65.568 32.021,63.646 32.186,61.02C27.93,59.938 24.565,60.203 22.861,62.979C21.778,64.561 20.999,68.087 20.391,72.696Z"/>
    </g>
    <g transform="matrix(1.03761,0,0,1.03761,57.9289,-1.94591)">
        <path d="M20.391,72.696C21.65,71.206 23.238,70.009 25.566,69.469C27.198,68.964 28.477,68.106 29.516,67.007C31.046,65.568 32.021,63.646 32.186,61.02C27.93,59.938 24.565,60.203 22.861,62.979C21.778,64.561 20.999,68.087 20.391,72.696Z"/>
    </g>
    <g transform="matrix(-1.03761,0,0,1.03761,100.244,-1.94591)">
        <path d="M20.391,72.696C21.65,71.206 23.238,70.009 25.566,69.469C27.198,68.964 28.477,68.106 29.516,67.007C31.046,65.568 32.021,63.646 32.186,61.02C27.93,59.938 24.565,60.203 22.861,62.979C21.778,64.561 20.999,68.087 20.391,72.696Z"/>
    </g>
    <g transform="matrix(1.03761,0,0,1.03761,-2.18606,-3.06939)">
        <path d="M54.878,70.941L43.193,70.941L41.942,73.779L56.102,73.779L54.878,70.941Z"/>
    </g>
    <g transform="matrix(1.03761,0,0,1.03761,-2.87402,-1.94591)">
        <rect x="46.926" y="47.174" width="5.519" height="24.103"/>
    </g>
    <g transform="matrix(1.77446,0,0,1.77446,-38.3078,-39.5389)">
        <path d="M56.102,34.014L41.942,34.014L46.263,50L51.781,50L56.102,34.014Z"/>
    </g>
    <g transform="matrix(1.35173,0,0,1.03761,-17.749,-7.79955)">
        <path d="M66.531,19.919C66.531,18.509 65.652,17.365 64.571,17.365L33.716,17.365C32.634,17.365 31.756,18.509 31.756,19.919L31.756,25.026C31.756,26.436 32.634,27.58 33.716,27.58L64.571,27.58C65.652,27.58 66.531,26.436 66.531,25.026L66.531,19.919Z"/>
    </g>
    <g transform="matrix(0.675376,0,0,1.03761,18.9494,12.9588)">
        <path d="M18.049,20.443C18.049,19.618 17.02,18.948 15.752,18.948L11.518,18.948C10.249,18.948 9.22,19.618 9.22,20.443C9.22,21.269 10.249,21.939 11.518,21.939L15.752,21.939C17.02,21.939 18.049,21.269 18.049,20.443Z"/>
    </g>
    <g transform="matrix(0.620983,-0.265543,0.407966,0.954044,-1.9638,23.0146)">
        <path d="M18.049,20.443C18.049,19.618 17.02,18.948 15.752,18.948L11.518,18.948C10.249,18.948 9.22,19.618 9.22,20.443C9.22,21.269 10.249,21.939 11.518,21.939L15.752,21.939C17.02,21.939 18.049,21.269 18.049,20.443Z"/>
    </g>
    <g transform="matrix(0.609532,-0.65515,0.759673,0.706777,-4.87373,41.999)">
        <path d="M18.049,20.443C18.049,19.618 17.272,18.948 16.315,18.948L10.954,18.948C9.997,18.948 9.22,19.618 9.22,20.443C9.22,21.269 9.997,21.939 10.954,21.939L16.315,21.939C17.272,21.939 18.049,21.269 18.049,20.443Z"/>
    </g>
    <g transform="matrix(0.583902,-0.3559,0.540036,0.886001,9.56033,26.7092)">
        <path d="M18.049,20.443C18.049,19.618 17.032,18.948 15.78,18.948L11.489,18.948C10.237,18.948 9.22,19.618 9.22,20.443C9.22,21.269 10.237,21.939 11.489,21.939L15.78,21.939C17.032,21.939 18.049,21.269 18.049,20.443Z"/>
    </g>
    <g transform="matrix(0.495477,-0.471285,0.715118,0.751827,11.3363,35.9034)">
        <path d="M18.049,20.443C18.049,19.618 17.032,18.948 15.78,18.948L11.489,18.948C10.237,18.948 9.22,19.618 9.22,20.443C9.22,21.269 10.237,21.939 11.489,21.939L15.78,21.939C17.032,21.939 18.049,21.269 18.049,20.443Z"/>
    </g>
    <g transform="matrix(0.399412,-0.737471,0.91239,0.494148,3.42246,53.3309)">
        <path d="M18.049,20.443C18.049,19.618 17.22,18.948 16.199,18.948L11.07,18.948C10.049,18.948 9.22,19.618 9.22,20.443C9.22,21.269 10.049,21.939 11.07,21.939L16.199,21.939C17.22,21.939 18.049,21.269 18.049,20.443Z"/>
    </g>
    <g transform="matrix(-0.675376,0,0,1.03761,78.5872,13.0716)">
        <path d="M18.049,20.443C18.049,19.618 17.02,18.948 15.752,18.948L11.518,18.948C10.249,18.948 9.22,19.618 9.22,20.443C9.22,21.269 10.249,21.939 11.518,21.939L15.752,21.939C17.02,21.939 18.049,21.269 18.049,20.443Z"/>
    </g>
    <g transform="matrix(-0.620983,-0.265543,-0.407966,0.954044,99.5004,23.1274)">
        <path d="M18.049,20.443C18.049,19.618 17.02,18.948 15.752,18.948L11.518,18.948C10.249,18.948 9.22,19.618 9.22,20.443C9.22,21.269 10.249,21.939 11.518,21.939L15.752,21.939C17.02,21.939 18.049,21.269 18.049,20.443Z"/>
    </g>
    <g transform="matrix(-0.609532,-0.65515,-0.759673,0.706777,102.41,42.1118)">
        <path d="M18.049,20.443C18.049,19.618 17.272,18.948 16.315,18.948L10.954,18.948C9.997,18.948 9.22,19.618 9.22,20.443C9.22,21.269 9.997,21.939 10.954,21.939L16.315,21.939C17.272,21.939 18.049,21.269 18.049,20.443Z"/>
    </g>
    <g transform="matrix(-0.583902,-0.3559,-0.540036,0.886001,87.9762,26.822)">
        <path d="M18.049,20.443C18.049,19.618 17.032,18.948 15.78,18.948L11.489,18.948C10.237,18.948 9.22,19.618 9.22,20.443C9.22,21.269 10.237,21.939 11.489,21.939L15.78,21.939C17.032,21.939 18.049,21.269 18.049,20.443Z"/>
    </g>
    <g transform="matrix(-0.495477,-0.471285,-0.715118,0.751827,86.2003,36.0162)">
        <path d="M18.049,20.443C18.049,19.618 17.032,18.948 15.78,18.948L11.489,18.948C10.237,18.948 9.22,19.618 9.22,20.443C9.22,21.269 10.237,21.939 11.489,21.939L15.78,21.939C17.032,21.939 18.049,21.269 18.049,20.443Z"/>
    </g>
    <g transform="matrix(-0.399412,-0.737471,-0.91239,0.494148,94.1141,53.4437)">
        <path d="M18.049,20.443C18.049,19.618 17.22,18.948 16.199,18.948L11.07,18.948C10.049,18.948 9.22,19.618 9.22,20.443C9.22,21.269 10.049,21.939 11.07,21.939L16.199,21.939C17.22,21.939 18.049,21.269 18.049,20.443Z"/>
    </g>
</svg>
