<?xml version="1.0" encoding="UTF-8" standalone="no"?>
<!DOCTYPE svg PUBLIC "-//W3C//DTD SVG 1.1//EN" "http://www.w3.org/Graphics/SVG/1.1/DTD/svg11.dtd">
<svg width="100%" height="100%" viewBox="0 0 100 100" version="1.1" xmlns="http://www.w3.org/2000/svg" xmlns:xlink="http://www.w3.org/1999/xlink" xml:space="preserve" xmlns:serif="http://www.serif.com/" style="fill-rule:evenodd;clip-rule:evenodd;stroke-linejoin:round;stroke-miterlimit:2;">
    <g transform="matrix(1,0,0,1.10301,-0.295068,-14.3414)">
        <rect x="3.681" y="88.594" width="93.228" height="9.066"/>
    </g>
    <g transform="matrix(1,0,0,1.04786,-0.295068,-22.9327)">
        <rect x="3.681" y="88.594" width="93.228" height="9.066"/>
    </g>
    <g transform="matrix(1,0,0,0.992711,-0.295068,-30.577)">
        <rect x="3.681" y="88.594" width="93.228" height="9.066"/>
    </g>
    <g transform="matrix(1,0,0,0.882409,-0.295068,-31.8264)">
        <rect x="3.681" y="88.594" width="93.228" height="9.066"/>
    </g>
    <g transform="matrix(1,0,0,0.772108,-0.295068,-31.7529)">
        <rect x="3.681" y="88.594" width="93.228" height="9.066"/>
    </g>
    <g transform="matrix(1,0,0,0.661807,-0.295068,-30.4321)">
        <rect x="3.681" y="88.594" width="93.228" height="9.066"/>
    </g>
    <g transform="matrix(1,0,0,0.551506,-0.295068,-27.935)">
        <rect x="3.681" y="88.594" width="93.228" height="9.066"/>
    </g>
    <g transform="matrix(1,0,0,0.441205,-0.295068,-24.1995)">
        <rect x="3.681" y="88.594" width="93.228" height="9.066"/>
    </g>
    <g transform="matrix(1,0,0,0.330904,-0.295068,-19.1558)">
        <rect x="3.681" y="88.594" width="93.228" height="9.066"/>
    </g>
    <g transform="matrix(1,0,0,0.220602,-0.295068,-12.923)">
        <rect x="3.681" y="88.594" width="93.228" height="9.066"/>
    </g>
</svg>
