<?xml version="1.0" encoding="UTF-8" standalone="no"?>
<!DOCTYPE svg PUBLIC "-//W3C//DTD SVG 1.1//EN" "http://www.w3.org/Graphics/SVG/1.1/DTD/svg11.dtd">
<svg width="100%" height="100%" viewBox="0 0 3 16" version="1.1" xmlns="http://www.w3.org/2000/svg" xmlns:xlink="http://www.w3.org/1999/xlink" xml:space="preserve" xmlns:serif="http://www.serif.com/" style="fill-rule:evenodd;clip-rule:evenodd;stroke-linejoin:round;stroke-miterlimit:2;">
    <g transform="matrix(1.5,0,0,1.45456,-10.5,-2.90931)">
        <path d="M7.005,3.1C7.002,3.067 7,3.033 7,3C7,2.452 7.451,2 8,2C8.549,2 9,2.452 9,3C9,3.033 8.998,3.067 8.995,3.1L8.607,9.45C8.576,9.76 8.312,10 8,10C7.688,10 7.424,9.76 7.393,9.45L7.005,3.1ZM7,12C7,11.451 7.451,11 8,11C8.549,11 9,11.451 9,12C9,12.549 8.549,13 8,13C7.451,13 7,12.549 7,12Z" style="fill:rgb(52,89,149);fill-rule:nonzero;"/>
    </g>
</svg>
