<?xml version="1.0" encoding="UTF-8" standalone="no"?>
<!DOCTYPE svg PUBLIC "-//W3C//DTD SVG 1.1//EN" "http://www.w3.org/Graphics/SVG/1.1/DTD/svg11.dtd">
<svg width="100%" height="100%" viewBox="0 0 32 32" version="1.1" xmlns="http://www.w3.org/2000/svg" xmlns:xlink="http://www.w3.org/1999/xlink" xml:space="preserve" xmlns:serif="http://www.serif.com/" style="fill-rule:evenodd;clip-rule:evenodd;stroke-linejoin:round;stroke-miterlimit:2;">
    <path d="M13.87,23.549L12.274,22.851L11.309,21.187L8.742,20.427L6.482,20.899L3.792,21.002L1.573,18.722L0.731,15.354L1.943,12.745L4.921,11.225L7.242,11.575L9.912,11.801L10.837,9.932L9.502,4.674L10.857,1.634L13.219,0.833L15.314,1.942L17.656,4.078L24.084,1.839L27.145,2.373L27.473,3.996L26.426,8.432L27.33,10.835L29.959,13.053L31.191,16.607L29.753,18.969L26.611,20.098L25.009,22.009L23.961,26.014L21.763,27.575L18.806,26.753L15.376,24.062L13.87,23.549Z" style="fill:white;"/>
    <g transform="matrix(0.748311,0,0,0.748311,-77.5477,-6.44183)">
        <path d="M127.896,27.822C128.51,27.411 129.061,27.254 129.572,27.254C130.657,27.215 131.183,27.814 131.137,29.067C130.863,31.394 129.851,32.681 127.858,32.583C125.687,32.362 124.218,31.361 124.149,28.803C124.801,24.671 127.313,24.498 127.907,23.683C127.996,22.991 127.878,22.445 127.114,22.355C126.095,22.427 125.236,22.914 124.496,23.705C123.094,24.981 122.274,26.688 122.165,28.919C122.236,31.997 123.839,34.097 128.172,34.457C131.002,34.452 132.916,33.014 133.247,29.1C133.146,26.952 132.287,25.429 129.731,25.309C128.83,25.315 127.899,25.459 126.91,25.877C126.005,26.143 126.251,28.027 127.152,27.987C127.356,28.006 127.604,27.951 127.896,27.822Z" style="fill:rgb(52,89,149);"/>
    </g>
    <g transform="matrix(0.423071,0.375629,-0.375629,0.423071,-10.1334,-45.4487)">
        <path d="M120.115,60.749C121.791,58.057 127.95,53.219 136.027,47.058C138.685,45.075 139.173,45.518 137.973,47.851C135.553,53.865 132.978,59.726 130.198,65.382C129.49,66.822 128.665,68.161 127.706,69.386C126.96,70.391 126.044,71.225 125.012,71.943C123.435,72.978 121.768,73.673 120.012,74.027C118.834,74.345 117.94,74.064 117.695,72.408C117.82,69.91 118.109,67.502 118.557,65.184C118.788,63.604 119.274,62.114 120.115,60.749Z" style="fill:rgb(60,132,31);"/>
    </g>
    <g transform="matrix(0.748311,0,0,0.748311,-77.5477,-6.44183)">
        <path d="M118.863,51.371L120.997,51.371C121.471,44.904 121.61,42.828 123.753,38.46C123.877,37.656 123.751,37.049 123.104,36.852C122.362,36.732 121.844,37.116 121.616,38.153C121.434,38.361 121.238,38.632 121.037,38.932C120.943,38.143 120.675,37.36 120.066,36.59C119.467,35.676 117.903,35.134 115.155,35.047C113.826,34.82 111.914,36.15 110.105,35.963C107.532,35.336 105.88,33.463 105.952,29.254C106.226,26.499 107.585,24.749 110.56,24.494C111.438,24.47 112.357,24.662 113.309,25.024C113.974,25.53 114.781,25.726 115.74,25.589C117.856,25.672 119.066,24.769 119.308,22.813C119.39,21.556 118.652,19.372 117.628,16.978C116.927,14.039 117.46,11.824 120.231,10.923C121.513,10.295 122.851,10.861 124.261,12.914C125.791,14.8 127.005,15.229 128.112,15.167C130.279,14.889 132.305,14.057 134.215,12.769C137.548,11.098 139.557,11.435 139.381,15.091C139.185,16.2 138.76,17.336 138.086,18.501C137.285,20.142 137.673,21.917 139.499,23.853C141.696,25.484 143.477,27.11 144.148,28.723C144.709,30.408 144.012,31.936 142.35,33.345C141.08,33.334 139.885,33.687 138.761,34.392C137.033,35.469 135.903,36.861 135.607,38.691C135.023,40.847 134.99,42.789 134.27,43.34C133.196,44.533 131.82,44.43 129.917,43.795C129.149,43.39 125.705,41.601 124.084,39.32C123.741,38.783 122.872,39.898 123.139,40.513C124.596,43.383 128.337,46.287 132.789,46.309C135.345,45.945 136.86,44.557 137.101,41.915C137.064,41.083 137.242,39.938 137.756,38.298C138.365,36.599 139.828,35.538 142.55,35.419C144.398,34.757 145.807,33.32 146.387,30.418C146.497,28.082 145.171,25.739 141.992,23.385C139.819,21.832 139.213,20.044 140.842,17.922C141.205,16.999 141.402,15.803 141.441,14.471C141.628,12.359 140.227,9.91 137.032,9.842C135.7,9.814 134.772,10.018 132.968,11.054C131.163,12.334 129.508,12.817 127.905,13.031C127.13,13.018 126.361,12.602 125.604,11.468C124.987,10.287 122.376,8.582 121.23,8.609C118.819,8.665 115.631,10.708 115.299,14.54C115.21,15.57 115.394,16.244 115.94,18.37C116.314,19.221 116.673,20.244 117.028,21.297C117.248,23.113 116.538,23.999 114.535,23.591C113.039,23.015 111.592,22.735 110.188,22.709C106.897,22.996 103.626,26.076 103.63,28.999C103.961,34.677 106.278,37.369 109.933,38.05C111.654,37.977 113.527,37.627 115.614,36.886C116.799,36.742 117.715,36.989 118.316,37.692C118.818,38.348 119.048,38.994 119.088,39.772C119.308,40.475 119.778,40.836 120.459,40.909L118.863,51.371Z" style="fill:rgb(60,132,31);"/>
    </g>
</svg>
