<?xml version="1.0" encoding="UTF-8" standalone="no"?>
<!DOCTYPE svg PUBLIC "-//W3C//DTD SVG 1.1//EN" "http://www.w3.org/Graphics/SVG/1.1/DTD/svg11.dtd">
<svg width="100%" height="100%" viewBox="0 0 100 80" version="1.1" xmlns="http://www.w3.org/2000/svg" xmlns:xlink="http://www.w3.org/1999/xlink" xml:space="preserve" xmlns:serif="http://www.serif.com/" style="fill-rule:evenodd;clip-rule:evenodd;stroke-linejoin:round;stroke-miterlimit:2;">
    <g>
        <g transform="matrix(0.811854,0,0,0.811854,-31.9988,-9.0661)">
            <path d="M132.411,69.815C132.071,69.95 132.038,70.255 132.23,70.684C132.526,71.284 132.798,71.884 133.057,72.484C134.951,74.422 136.791,74.433 138.593,73.138C140.589,71.693 142.086,69.415 143.2,66.5C143.772,64.941 144.304,63.623 144.785,62.616C144.776,63.861 144.908,65.007 145.138,66.086C146.27,72.116 148.134,73.764 150.295,73.638C153.269,73.655 155.358,69.919 156.771,63.305C157.629,59.718 158.356,57.042 158.958,55.237C160.055,51.953 161.135,49.623 162.195,48.452C162.642,47.942 162.774,47.473 162.247,47.091C160.64,45.322 159.347,44.794 158.2,44.844C156.091,44.812 154.751,46.753 153.654,49.313C152.072,53.636 151.651,55.253 151.415,56.442C151.206,53.03 151.063,49.814 151.389,47.97C151.412,47.735 151.472,47.536 151.587,47.393C150.478,46.409 148.993,46.087 147.351,46.041C144.48,46.119 142.855,47.626 141.986,50C140.093,55.337 138.351,59.802 136.803,63.159C135.852,65.284 134.822,67.185 133.651,68.687C133.291,69.275 132.882,69.667 132.411,69.815Z" style="fill:rgb(52,89,149);"/>
        </g>
        <g transform="matrix(0.811854,0,0,0.811854,-31.9988,-5.40778)">
            <path d="M127.896,27.822C128.51,27.411 129.061,27.254 129.572,27.254C130.657,27.215 131.183,27.814 131.137,29.067C130.863,31.394 129.851,32.681 127.858,32.583C125.687,32.362 124.218,31.361 124.149,28.803C124.801,24.671 127.313,24.498 127.907,23.683C127.996,22.991 127.878,22.445 127.114,22.355C126.095,22.427 125.236,22.914 124.496,23.705C123.094,24.981 122.274,26.688 122.165,28.919C122.236,31.997 123.839,34.097 128.172,34.457C131.002,34.452 132.916,33.014 133.247,29.1C133.146,26.952 132.287,25.429 129.731,25.309C128.83,25.315 127.899,25.459 126.91,25.877C126.005,26.143 126.251,28.027 127.152,27.987C127.356,28.006 127.604,27.951 127.896,27.822Z" style="fill:rgb(52,89,149);"/>
        </g>
        <g transform="matrix(0.811854,0,0,0.811854,-31.9988,-9.0661)">
            <path d="M41.439,64.429C40.768,66.039 40.245,67.564 39.821,69.033L39.421,70.294C39.404,71.054 39.422,71.708 39.463,72.291C41.146,74.699 43.688,74.32 46.653,72.565C46.482,72.425 46.374,72.235 46.379,71.955C46.233,70.746 46.953,68.631 48.04,66.132C57.692,63.441 64.922,59.547 65.656,52.426C65.5,48.466 62.218,46.518 54.83,47.212C52.502,45.904 50.885,45.517 49.806,45.825C49.298,47.852 45.799,47.517 42.364,47.233C41.119,51.351 42.352,53.105 45.496,53.035L42.679,61.045C41.137,61.298 40.736,62.436 41.439,64.429ZM50.716,58.949L53.003,52.942C55.383,52.079 56.834,52.308 57.542,53.41C57.677,55.337 54.99,57.169 50.716,58.949Z" style="fill:rgb(52,89,149);"/>
        </g>
        <g transform="matrix(0.811854,0,0,0.811854,-31.9988,-9.0661)">
            <path d="M63.05,71.956C62.303,75.758 68.523,77.185 69.979,75.016L72.115,68.929L80.019,72.897C85.417,74.473 88.958,73.464 89.571,68.374C89.212,68.489 88.844,68.551 88.461,68.525C85.124,68.357 81.312,66.694 77.193,64.068C85.444,62.996 90.756,60.243 91.337,54.785C91.088,50.036 87.434,47.918 80.204,48.562L80.271,47.587C80.241,47.031 79.891,46.668 78.892,46.696L75.932,46.83C75.44,46.887 75.004,47.125 74.62,47.537C74.003,48.286 73.423,49.05 72.896,49.835C70.584,50.461 69.299,51.565 69.16,53.203L69.149,54.806C69.13,55.152 69.31,55.275 69.689,55.175L70.355,54.933L67.809,60.444C66.124,60.738 65.775,62.147 66.156,64.163L63.05,71.956ZM76.163,58.958L78.34,54.064C81.336,53.88 82.67,54.195 82.683,54.907C82.351,56.751 79.729,57.981 76.163,58.958Z" style="fill:rgb(52,89,149);"/>
        </g>
        <g transform="matrix(0.811854,0,0,0.811854,-31.9988,-9.0661)">
            <path d="M96.244,57.53C96.936,55.977 97.983,54.05 99.337,51.799C97.825,50.098 100.061,47.034 103.614,46.998C106.314,46.859 108.96,46.873 111.55,47.046C114.429,47.318 115.637,48.457 115.614,50.236C115.478,51.9 114.713,53.149 113.547,54.134C113.123,53.279 111.712,52.827 108.863,52.963C107.303,53.394 106.359,54.624 105.846,56.415C107.015,56.255 108.057,56.163 108.987,56.132C112.002,56.267 111.91,58.188 110.861,60.658C110.611,60.564 110.303,60.492 109.869,60.472C107.294,60.77 104.798,61.588 102.333,62.621C101.556,63.837 101.156,64.889 101.059,65.81C101.001,66.425 101.3,66.642 101.885,66.541C104.531,66.263 107.689,65.292 111.584,63.324C112.033,62.997 112.254,63.083 112.225,63.62C112.302,67.38 109.894,69.692 106.315,71.321C102.505,73.042 99.238,73.864 96.457,73.877C93.502,73.845 91.987,72.563 92.228,69.758C92.307,67.86 93.415,65.053 94.48,61.657C93.751,59.148 94.199,57.651 96.244,57.53Z" style="fill:rgb(52,89,149);"/>
        </g>
    </g>
    <g>
        <g transform="matrix(0.811854,0,0,0.811854,-31.9988,-5.40778)">
            <path d="M112.516,86.966L114.307,87.386C114.781,80.918 118.002,64.646 118.981,58.01C120.058,49.494 121.61,42.828 123.753,38.46C123.877,37.656 123.751,37.049 123.104,36.852C122.362,36.732 121.844,37.116 121.616,38.153C121.434,38.361 121.238,38.632 121.037,38.932C120.943,38.143 120.675,37.36 120.066,36.59C119.467,35.676 117.903,35.134 115.155,35.047C113.826,34.82 111.914,36.15 110.105,35.963C107.532,35.336 105.88,33.463 105.952,29.254C106.226,26.499 107.585,24.749 110.56,24.494C111.438,24.47 112.357,24.662 113.309,25.024C113.974,25.53 114.781,25.726 115.74,25.589C117.856,25.672 119.066,24.769 119.308,22.813C119.39,21.556 118.652,19.372 117.628,16.978C116.927,14.039 117.46,11.824 120.231,10.923C121.513,10.295 122.851,10.861 124.261,12.914C125.791,14.8 127.005,15.229 128.112,15.167C130.279,14.889 132.305,14.057 134.215,12.769C137.548,11.098 139.557,11.435 139.381,15.091C139.185,16.2 138.76,17.336 138.086,18.501C137.285,20.142 137.673,21.917 139.499,23.853C141.696,25.484 143.477,27.11 144.148,28.723C144.709,30.408 144.012,31.936 142.35,33.345C141.08,33.334 139.885,33.687 138.761,34.392C137.033,35.469 135.903,36.861 135.607,38.691C135.023,40.847 134.99,42.789 134.27,43.34C133.196,44.533 131.82,44.43 129.917,43.795C129.149,43.39 128.038,42.784 126.417,40.502C126.074,39.966 125.629,39.717 124.991,40.006C124.487,40.29 124.325,40.721 124.592,41.336C126.049,44.207 128.337,46.287 132.789,46.309C135.345,45.945 136.86,44.557 137.101,41.915C137.064,41.083 137.242,39.938 137.756,38.298C138.365,36.599 139.828,35.538 142.55,35.419C144.398,34.757 145.807,33.32 146.387,30.418C146.497,28.082 145.171,25.739 141.992,23.385C139.819,21.832 139.213,20.044 140.842,17.922C141.205,16.999 141.402,15.803 141.441,14.471C141.628,12.359 140.227,9.91 137.032,9.842C135.7,9.814 134.772,10.018 132.968,11.054C131.163,12.334 129.508,12.817 127.905,13.031C127.13,13.018 126.361,12.602 125.604,11.468C124.987,10.287 122.376,8.582 121.23,8.609C118.819,8.665 115.631,10.708 115.299,14.54C115.21,15.57 115.394,16.244 115.94,18.37C116.314,19.221 116.673,20.244 117.028,21.297C117.248,23.113 116.538,23.999 114.535,23.591C113.039,23.015 111.592,22.735 110.188,22.709C106.897,22.996 103.626,26.076 103.63,28.999C103.961,34.677 106.278,37.369 109.933,38.05C111.654,37.977 113.527,37.627 115.614,36.886C116.799,36.742 117.715,36.989 118.316,37.692C118.818,38.348 119.048,38.994 119.088,39.772C119.308,40.475 119.778,40.836 120.459,40.909L117.834,52.413L116.615,58.729L112.516,86.966Z" style="fill:rgb(60,132,31);"/>
        </g>
        <g transform="matrix(0.811854,0,0,0.811854,-31.9988,-5.40778)">
            <path d="M120.115,60.749C121.791,58.057 127.95,53.219 136.027,47.058C138.685,45.075 139.173,45.518 137.973,47.851C135.553,53.865 132.978,59.726 130.198,65.382C129.49,66.822 128.665,68.161 127.706,69.386C126.96,70.391 126.044,71.225 125.012,71.943C123.435,72.978 121.768,73.673 120.012,74.027C118.834,74.345 117.94,74.064 117.695,72.408C117.82,69.91 118.109,67.502 118.557,65.184C118.788,63.604 119.274,62.114 120.115,60.749Z" style="fill:rgb(60,132,31);"/>
        </g>
    </g>
</svg>
