<?xml version="1.0" encoding="UTF-8" standalone="no"?>
<!DOCTYPE svg PUBLIC "-//W3C//DTD SVG 1.1//EN" "http://www.w3.org/Graphics/SVG/1.1/DTD/svg11.dtd">
<svg width="100%" height="100%" viewBox="0 0 100 100" version="1.1" xmlns="http://www.w3.org/2000/svg" xmlns:xlink="http://www.w3.org/1999/xlink" xml:space="preserve" xmlns:serif="http://www.serif.com/" style="fill-rule:evenodd;clip-rule:evenodd;stroke-linejoin:round;stroke-miterlimit:2;">
    <path d="M30.789,18.102C33.151,9.716 40.863,3.562 50,3.562C59.137,3.562 66.849,9.716 69.211,18.102L81.33,18.102L81.33,71.524L90.154,71.524L90.154,81.087L95.321,81.087L95.321,94.866L4.679,94.866L4.679,81.087L9.846,81.087L9.846,71.524L18.67,71.524L18.67,18.102L30.789,18.102ZM68.612,62.725L31.388,62.725L31.388,65.765L68.612,65.765L68.612,62.725ZM65.553,56.401L34.447,56.401L34.447,59.441L65.553,59.441L65.553,56.401ZM54.264,22.635L54.264,14.071L45.736,14.071L45.736,22.635L35.941,22.635L35.941,31.164L45.736,31.164L45.736,45.322L54.264,45.322L54.264,31.164L64.059,31.164L64.059,22.635L54.264,22.635Z"/>
</svg>
