<?xml version="1.0" encoding="UTF-8" standalone="no"?>
<!DOCTYPE svg PUBLIC "-//W3C//DTD SVG 1.1//EN" "http://www.w3.org/Graphics/SVG/1.1/DTD/svg11.dtd">
<svg width="100%" height="100%" viewBox="0 0 100 100" version="1.1" xmlns="http://www.w3.org/2000/svg" xmlns:xlink="http://www.w3.org/1999/xlink" xml:space="preserve" xmlns:serif="http://www.serif.com/" style="fill-rule:evenodd;clip-rule:evenodd;stroke-linejoin:round;stroke-miterlimit:2;">
    <path d="M2.703,97.476L2.703,44.412L14.822,44.412C17.185,36.025 24.896,29.871 34.034,29.871C43.171,29.871 50.882,36.025 53.245,44.412L65.364,44.412L65.364,97.476L2.703,97.476ZM47.414,47.029C47.414,47.029 44.918,48.943 44.684,49.956C44.435,51.031 45.105,52.106 46.181,52.355C47.256,52.604 48.331,51.934 48.58,50.858C48.815,49.845 47.414,47.029 47.414,47.029ZM43.626,41.902C43.626,41.902 40.889,42.78 40.375,43.58C39.83,44.428 40.076,45.56 40.925,46.105C41.773,46.65 42.905,46.404 43.45,45.556C43.964,44.756 43.626,41.902 43.626,41.902ZM51.37,40.528C51.37,40.528 48.9,40.506 48.265,41.02C47.591,41.565 47.486,42.555 48.031,43.228C48.576,43.902 49.566,44.007 50.24,43.462C50.875,42.948 51.37,40.528 51.37,40.528ZM45.805,35.867C45.805,35.867 43.359,35.52 42.662,35.946C41.922,36.398 41.689,37.365 42.14,38.105C42.592,38.845 43.56,39.078 44.299,38.627C44.997,38.201 45.805,35.867 45.805,35.867Z"/>
    <path d="M69.466,29.414C66.456,26.757 64.556,22.871 64.556,18.545C64.556,10.545 71.051,4.05 79.051,4.05C87.051,4.05 93.545,10.545 93.545,18.545C93.545,19.929 93.351,21.267 92.988,22.536L94.931,24.508C97.1,26.711 97.073,30.26 94.871,32.43L86.889,40.292C84.847,42.304 81.646,42.427 79.462,40.678L60.023,38.223L55.601,41.227L55.601,31.374L60.045,34.557L72.244,33.407L70.931,32.074C70.179,31.311 69.691,30.386 69.466,29.414ZM90.419,19.928C90.473,19.475 90.502,19.013 90.502,18.545C90.502,12.225 85.371,7.094 79.051,7.094C72.731,7.094 67.6,12.225 67.6,18.545C67.6,21.168 68.484,23.586 69.971,25.519C70.232,25.026 70.572,24.564 70.99,24.152L78.972,16.29C81.175,14.12 84.724,14.147 86.894,16.349L90.419,19.928Z"/>
</svg>
